<?xml version="1.0" encoding="UTF-8" standalone="no"?>
<!DOCTYPE svg PUBLIC "-//W3C//DTD SVG 1.1//EN"
 "http://www.w3.org/Graphics/SVG/1.1/DTD/svg11.dtd">
<!-- Generated by graphviz version 9.0.0 (20230911.1827)
 -->
<!-- Title: db_structure Pages: 1 -->
<svg width="311pt" height="129pt"
 viewBox="0.00 0.00 311.25 128.50" xmlns="http://www.w3.org/2000/svg" xmlns:xlink="http://www.w3.org/1999/xlink">
<g id="graph0" class="graph" transform="scale(1 1) rotate(0) translate(4 124.5)">
<title>db_structure</title>
<polygon fill="white" stroke="none" points="-4,4 -4,-124.5 307.25,-124.5 307.25,4 -4,4"/>
<text text-anchor="middle" x="151.62" y="-97.5" font-family="Helvetica, Arial, sans-serif" font-size="20.00">Schéma de la base de données</text>
<!-- user -->
<g id="node1" class="node">
<title>user</title>
<polygon fill="lightgrey" stroke="none" points="127.25,-85.5 34.25,-85.5 34.25,0 127.25,0 127.25,-85.5"/>
<polygon fill="none" stroke="#000000" stroke-opacity="0.266667" points="42.25,-55 42.25,-81.5 119.25,-81.5 119.25,-55 42.25,-55"/>
<text text-anchor="start" x="64.62" y="-64.2" font-family="Helvetica,Arial,sans-serif" font-weight="bold" font-size="14.00">User</text>
<polygon fill="none" stroke="#000000" stroke-opacity="0.266667" points="42.25,-4 42.25,-55 119.25,-55 119.25,-4 42.25,-4"/>
<text text-anchor="start" x="49.25" y="-34.7" font-family="Helvetica,Arial,sans-serif" font-size="14.00">username</text>
<text text-anchor="start" x="50" y="-14.2" font-family="Helvetica,Arial,sans-serif" font-size="14.00">password</text>
</g>
<!-- profile -->
<g id="node2" class="node">
<title>profile</title>
<polygon fill="lightgrey" stroke="none" points="269,-88.5 163.25,-88.5 163.25,-3 269,-3 269,-88.5"/>
<polygon fill="none" stroke="#000000" stroke-opacity="0.266667" points="171.25,-58 171.25,-84.5 261,-84.5 261,-58 171.25,-58"/>
<text text-anchor="start" x="193.62" y="-67.2" font-family="Helvetica,Arial,sans-serif" font-weight="bold" font-size="14.00">Profile</text>
<polygon fill="none" stroke="#000000" stroke-opacity="0.266667" points="171.25,-7 171.25,-58 261,-58 261,-7 171.25,-7"/>
<text text-anchor="start" x="202.25" y="-37.7" font-family="Helvetica,Arial,sans-serif" font-size="14.00">user</text>
<text text-anchor="start" x="178.25" y="-17.2" font-family="Helvetica,Arial,sans-serif" font-size="14.00">favorite_city</text>
</g>
<!-- user&#45;&gt;profile -->
<g id="edge1" class="edge">
<title>user&#45;&gt;profile:user</title>
<path fill="none" stroke="black" stroke-width="2" stroke-dasharray="1,5" d="M134.55,-42.75C147.79,-42.75 161.98,-42.75 175.12,-42.75"/>
<polygon fill="black" stroke="black" stroke-width="2" points="134.9,-41 129.9,-42.75 134.9,-44.5 134.9,-41"/>
<text text-anchor="middle" x="147.94" y="-50.38" font-family="Helvetica,Arial,sans-serif" font-size="14.00" fill="#000000" fill-opacity="0.501961">1</text>
</g>
</g>
</svg>
