<?xml version="1.0" encoding="UTF-8" standalone="no"?>
<!DOCTYPE svg PUBLIC "-//W3C//DTD SVG 1.1//EN"
 "http://www.w3.org/Graphics/SVG/1.1/DTD/svg11.dtd">
<!-- Generated by graphviz version 9.0.0 (20230911.1827)
 -->
<!-- Title: model_graph Pages: 1 -->
<svg width="562pt" height="305pt"
 viewBox="0.00 0.00 562.00 305.00" xmlns="http://www.w3.org/2000/svg" xmlns:xlink="http://www.w3.org/1999/xlink">
<g id="graph0" class="graph" transform="scale(1 1) rotate(0) translate(4 301)">
<title>model_graph</title>
<polygon fill="white" stroke="none" points="-4,4 -4,-301 558,-301 558,4 -4,4"/>
<g id="clust2" class="cluster">
<title>cluster_lettings</title>
<path fill="none" stroke="#698b22" d="M288,-8C288,-8 534,-8 534,-8 540,-8 546,-14 546,-20 546,-20 546,-277 546,-277 546,-283 540,-289 534,-289 534,-289 288,-289 288,-289 282,-289 276,-283 276,-277 276,-277 276,-20 276,-20 276,-14 282,-8 288,-8"/>
<text text-anchor="start" x="330" y="-272.5" font-family="Roboto" font-size="8.00"> &#160;&#160;&#160;&#160;&#160;&#160;&#160;&#160;&#160;</text>
<text text-anchor="start" x="360" y="-272.5" font-family="Roboto" font-size="10.00"> &#160;&#160;&#160;&#160;&#160;&#160;&#160;&#160;&#160;</text>
<text text-anchor="start" x="390" y="-272.5" font-family="Roboto" font-weight="bold" font-size="10.00">lettings</text>
<text text-anchor="start" x="432" y="-272.5" font-family="Roboto" font-size="10.00"> &#160;&#160;&#160;&#160;&#160;&#160;&#160;&#160;&#160;</text>
<text text-anchor="start" x="462" y="-272.5" font-family="Roboto" font-size="8.00"> &#160;&#160;&#160;&#160;&#160;&#160;&#160;&#160;&#160;</text>
</g>
<g id="clust1" class="cluster">
<title>cluster_profiles</title>
<path fill="none" stroke="#698b22" d="M20,-175.75C20,-175.75 256,-175.75 256,-175.75 262,-175.75 268,-181.75 268,-187.75 268,-187.75 268,-277 268,-277 268,-283 262,-289 256,-289 256,-289 20,-289 20,-289 14,-289 8,-283 8,-277 8,-277 8,-187.75 8,-187.75 8,-181.75 14,-175.75 20,-175.75"/>
<text text-anchor="start" x="57" y="-272.5" font-family="Roboto" font-size="8.00"> &#160;&#160;&#160;&#160;&#160;&#160;&#160;&#160;&#160;</text>
<text text-anchor="start" x="87" y="-272.5" font-family="Roboto" font-size="10.00"> &#160;&#160;&#160;&#160;&#160;&#160;&#160;&#160;&#160;</text>
<text text-anchor="start" x="117" y="-272.5" font-family="Roboto" font-weight="bold" font-size="10.00">profiles</text>
<text text-anchor="start" x="159" y="-272.5" font-family="Roboto" font-size="10.00"> &#160;&#160;&#160;&#160;&#160;&#160;&#160;&#160;&#160;</text>
<text text-anchor="start" x="189" y="-272.5" font-family="Roboto" font-size="8.00"> &#160;&#160;&#160;&#160;&#160;&#160;&#160;&#160;&#160;</text>
</g>
<!-- profiles_models_Profile -->
<g id="node1" class="node">
<title>profiles_models_Profile</title>
<polygon fill="white" stroke="none" points="24.5,-187.75 24.5,-249.75 251.5,-249.75 251.5,-187.75 24.5,-187.75"/>
<polygon fill="#1b563f" stroke="none" points="25.5,-227.75 25.5,-248.75 250.5,-248.75 250.5,-227.75 25.5,-227.75"/>
<text text-anchor="start" x="88.5" y="-235.25" font-family="Roboto" font-size="8.00"> &#160;&#160;&#160;&#160;&#160;</text>
<text text-anchor="start" x="106.5" y="-235.25" font-family="Roboto" font-weight="bold" font-size="10.00" fill="white"> &#160;&#160;&#160;&#160;&#160;Profile &#160;&#160;&#160;&#160;&#160;</text>
<text text-anchor="start" x="27.5" y="-219.15" font-family="Roboto" font-size="8.00"> &#160;&#160;&#160;&#160;&#160;</text>
<text text-anchor="start" x="45.5" y="-219.15" font-family="Roboto" font-weight="bold" font-size="8.00">id</text>
<text text-anchor="start" x="54.5" y="-219.15" font-family="Roboto" font-size="8.00"> &#160;&#160;&#160;&#160;&#160;</text>
<text text-anchor="start" x="118.5" y="-219.15" font-family="Roboto" font-size="8.00"> &#160;&#160;&#160;&#160;&#160;</text>
<text text-anchor="start" x="136.5" y="-219.15" font-family="Roboto" font-weight="bold" font-size="8.00">AutoField</text>
<text text-anchor="start" x="182.25" y="-219.15" font-family="Roboto" font-size="8.00"> &#160;&#160;&#160;&#160;&#160;</text>
<text text-anchor="start" x="27.5" y="-206.15" font-family="Roboto" font-size="8.00"> &#160;&#160;&#160;&#160;&#160;</text>
<text text-anchor="start" x="45.5" y="-206.15" font-family="Roboto" font-weight="bold" font-size="8.00">user</text>
<text text-anchor="start" x="66.5" y="-206.15" font-family="Roboto" font-size="8.00"> &#160;&#160;&#160;&#160;&#160;</text>
<text text-anchor="start" x="118.25" y="-206.15" font-family="Roboto" font-size="8.00"> &#160;&#160;&#160;&#160;&#160;</text>
<text text-anchor="start" x="136.25" y="-206.15" font-family="Roboto" font-weight="bold" font-size="8.00">OneToOneField (id)</text>
<text text-anchor="start" x="230.75" y="-206.15" font-family="Roboto" font-size="8.00"> &#160;&#160;&#160;&#160;&#160;</text>
<text text-anchor="start" x="27.5" y="-193.15" font-family="Roboto" font-size="8.00"> &#160;&#160;&#160;&#160;&#160;</text>
<text text-anchor="start" x="45.5" y="-193.15" font-family="Roboto" font-size="8.00" fill="#7b7b7b">favorite_city</text>
<text text-anchor="start" x="96.5" y="-193.15" font-family="Roboto" font-size="8.00"> &#160;&#160;&#160;&#160;&#160;</text>
<text text-anchor="start" x="118.5" y="-193.15" font-family="Roboto" font-size="8.00"> &#160;&#160;&#160;&#160;&#160;</text>
<text text-anchor="start" x="136.5" y="-193.15" font-family="Roboto" font-size="8.00" fill="#7b7b7b">CharField</text>
<text text-anchor="start" x="176.25" y="-193.15" font-family="Roboto" font-size="8.00"> &#160;&#160;&#160;&#160;&#160;</text>
<polygon fill="none" stroke="black" points="24.5,-187.75 24.5,-249.75 251.5,-249.75 251.5,-187.75 24.5,-187.75"/>
</g>
<!-- django_contrib_auth_models_User -->
<g id="node4" class="node">
<title>django_contrib_auth_models_User</title>
<polygon fill="white" stroke="none" points="113.62,-65.88 113.62,-88.12 162.38,-88.12 162.38,-65.88 113.62,-65.88"/>
<polygon fill="#1b563f" stroke="none" points="113.62,-65.88 113.62,-88.12 162.38,-88.12 162.38,-65.88 113.62,-65.88"/>
<text text-anchor="start" x="118.12" y="-73.72" font-family="Roboto" font-size="8.00"> &#160;</text>
<text text-anchor="start" x="124.12" y="-73.72" font-family="Roboto" font-size="12.00" fill="white">User</text>
<text text-anchor="start" x="151.88" y="-73.72" font-family="Roboto" font-size="8.00"> &#160;</text>
</g>
<!-- profiles_models_Profile&#45;&gt;django_contrib_auth_models_User -->
<g id="edge1" class="edge">
<title>profiles_models_Profile&#45;&gt;django_contrib_auth_models_User</title>
<path fill="none" stroke="black" d="M138,-183.92C138,-155.81 138,-116.98 138,-94.99"/>
<text text-anchor="middle" x="167.25" y="-158.15" font-family="Roboto" font-size="8.00"> user (profile)</text>
</g>
<!-- lettings_models_Address -->
<g id="node2" class="node">
<title>lettings_models_Address</title>
<polygon fill="white" stroke="none" points="292.5,-20 292.5,-134 529.5,-134 529.5,-20 292.5,-20"/>
<polygon fill="#1b563f" stroke="none" points="293.5,-112 293.5,-133 528.5,-133 528.5,-112 293.5,-112"/>
<text text-anchor="start" x="356.62" y="-119.5" font-family="Roboto" font-size="8.00"> &#160;&#160;&#160;&#160;&#160;</text>
<text text-anchor="start" x="374.62" y="-119.5" font-family="Roboto" font-weight="bold" font-size="10.00" fill="white"> &#160;&#160;&#160;&#160;&#160;Address &#160;&#160;&#160;&#160;&#160;</text>
<text text-anchor="start" x="295.5" y="-103.4" font-family="Roboto" font-size="8.00"> &#160;&#160;&#160;&#160;&#160;</text>
<text text-anchor="start" x="313.5" y="-103.4" font-family="Roboto" font-weight="bold" font-size="8.00">id</text>
<text text-anchor="start" x="322.5" y="-103.4" font-family="Roboto" font-size="8.00"> &#160;&#160;&#160;&#160;&#160;</text>
<text text-anchor="start" x="408.5" y="-103.4" font-family="Roboto" font-size="8.00"> &#160;&#160;&#160;&#160;&#160;</text>
<text text-anchor="start" x="426.5" y="-103.4" font-family="Roboto" font-weight="bold" font-size="8.00">AutoField</text>
<text text-anchor="start" x="472.25" y="-103.4" font-family="Roboto" font-size="8.00"> &#160;&#160;&#160;&#160;&#160;</text>
<text text-anchor="start" x="295.5" y="-90.4" font-family="Roboto" font-size="8.00"> &#160;&#160;&#160;&#160;&#160;</text>
<text text-anchor="start" x="313.5" y="-90.4" font-family="Roboto" font-size="8.00">city</text>
<text text-anchor="start" x="327.75" y="-90.4" font-family="Roboto" font-size="8.00"> &#160;&#160;&#160;&#160;&#160;</text>
<text text-anchor="start" x="408.5" y="-90.4" font-family="Roboto" font-size="8.00"> &#160;&#160;&#160;&#160;&#160;</text>
<text text-anchor="start" x="426.5" y="-90.4" font-family="Roboto" font-size="8.00">CharField</text>
<text text-anchor="start" x="466.25" y="-90.4" font-family="Roboto" font-size="8.00"> &#160;&#160;&#160;&#160;&#160;</text>
<text text-anchor="start" x="295.25" y="-77.4" font-family="Roboto" font-size="8.00"> &#160;&#160;&#160;&#160;&#160;</text>
<text text-anchor="start" x="313.25" y="-77.4" font-family="Roboto" font-size="8.00">country_iso_code</text>
<text text-anchor="start" x="386.75" y="-77.4" font-family="Roboto" font-size="8.00"> &#160;&#160;&#160;&#160;&#160;</text>
<text text-anchor="start" x="408.5" y="-77.4" font-family="Roboto" font-size="8.00"> &#160;&#160;&#160;&#160;&#160;</text>
<text text-anchor="start" x="426.5" y="-77.4" font-family="Roboto" font-size="8.00">CharField</text>
<text text-anchor="start" x="466.25" y="-77.4" font-family="Roboto" font-size="8.00"> &#160;&#160;&#160;&#160;&#160;</text>
<text text-anchor="start" x="295.5" y="-64.4" font-family="Roboto" font-size="8.00"> &#160;&#160;&#160;&#160;&#160;</text>
<text text-anchor="start" x="313.5" y="-64.4" font-family="Roboto" font-size="8.00">number</text>
<text text-anchor="start" x="346.5" y="-64.4" font-family="Roboto" font-size="8.00"> &#160;&#160;&#160;&#160;&#160;</text>
<text text-anchor="start" x="408.25" y="-64.4" font-family="Roboto" font-size="8.00"> &#160;&#160;&#160;&#160;&#160;</text>
<text text-anchor="start" x="426.25" y="-64.4" font-family="Roboto" font-size="8.00">PositiveIntegerField</text>
<text text-anchor="start" x="508.75" y="-64.4" font-family="Roboto" font-size="8.00"> &#160;&#160;&#160;&#160;&#160;</text>
<text text-anchor="start" x="295.5" y="-51.4" font-family="Roboto" font-size="8.00"> &#160;&#160;&#160;&#160;&#160;</text>
<text text-anchor="start" x="313.5" y="-51.4" font-family="Roboto" font-size="8.00">state</text>
<text text-anchor="start" x="335.25" y="-51.4" font-family="Roboto" font-size="8.00"> &#160;&#160;&#160;&#160;&#160;</text>
<text text-anchor="start" x="408.5" y="-51.4" font-family="Roboto" font-size="8.00"> &#160;&#160;&#160;&#160;&#160;</text>
<text text-anchor="start" x="426.5" y="-51.4" font-family="Roboto" font-size="8.00">CharField</text>
<text text-anchor="start" x="466.25" y="-51.4" font-family="Roboto" font-size="8.00"> &#160;&#160;&#160;&#160;&#160;</text>
<text text-anchor="start" x="295.5" y="-38.4" font-family="Roboto" font-size="8.00"> &#160;&#160;&#160;&#160;&#160;</text>
<text text-anchor="start" x="313.5" y="-38.4" font-family="Roboto" font-size="8.00">street</text>
<text text-anchor="start" x="339" y="-38.4" font-family="Roboto" font-size="8.00"> &#160;&#160;&#160;&#160;&#160;</text>
<text text-anchor="start" x="408.5" y="-38.4" font-family="Roboto" font-size="8.00"> &#160;&#160;&#160;&#160;&#160;</text>
<text text-anchor="start" x="426.5" y="-38.4" font-family="Roboto" font-size="8.00">CharField</text>
<text text-anchor="start" x="466.25" y="-38.4" font-family="Roboto" font-size="8.00"> &#160;&#160;&#160;&#160;&#160;</text>
<text text-anchor="start" x="295.5" y="-25.4" font-family="Roboto" font-size="8.00"> &#160;&#160;&#160;&#160;&#160;</text>
<text text-anchor="start" x="313.5" y="-25.4" font-family="Roboto" font-size="8.00">zip_code</text>
<text text-anchor="start" x="349.5" y="-25.4" font-family="Roboto" font-size="8.00"> &#160;&#160;&#160;&#160;&#160;</text>
<text text-anchor="start" x="408.25" y="-25.4" font-family="Roboto" font-size="8.00"> &#160;&#160;&#160;&#160;&#160;</text>
<text text-anchor="start" x="426.25" y="-25.4" font-family="Roboto" font-size="8.00">PositiveIntegerField</text>
<text text-anchor="start" x="508.75" y="-25.4" font-family="Roboto" font-size="8.00"> &#160;&#160;&#160;&#160;&#160;</text>
<polygon fill="none" stroke="black" points="292.5,-20 292.5,-134 529.5,-134 529.5,-20 292.5,-20"/>
</g>
<!-- lettings_models_Letting -->
<g id="node3" class="node">
<title>lettings_models_Letting</title>
<polygon fill="white" stroke="none" points="304,-187.75 304,-249.75 518,-249.75 518,-187.75 304,-187.75"/>
<polygon fill="#1b563f" stroke="none" points="305,-227.75 305,-248.75 517,-248.75 517,-227.75 305,-227.75"/>
<text text-anchor="start" x="360" y="-235.25" font-family="Roboto" font-size="8.00"> &#160;&#160;&#160;&#160;&#160;</text>
<text text-anchor="start" x="378" y="-235.25" font-family="Roboto" font-weight="bold" font-size="10.00" fill="white"> &#160;&#160;&#160;&#160;&#160;Letting &#160;&#160;&#160;&#160;&#160;</text>
<text text-anchor="start" x="307" y="-219.15" font-family="Roboto" font-size="8.00"> &#160;&#160;&#160;&#160;&#160;</text>
<text text-anchor="start" x="325" y="-219.15" font-family="Roboto" font-weight="bold" font-size="8.00">id</text>
<text text-anchor="start" x="334" y="-219.15" font-family="Roboto" font-size="8.00"> &#160;&#160;&#160;&#160;&#160;</text>
<text text-anchor="start" x="385" y="-219.15" font-family="Roboto" font-size="8.00"> &#160;&#160;&#160;&#160;&#160;</text>
<text text-anchor="start" x="403" y="-219.15" font-family="Roboto" font-weight="bold" font-size="8.00">AutoField</text>
<text text-anchor="start" x="448.75" y="-219.15" font-family="Roboto" font-size="8.00"> &#160;&#160;&#160;&#160;&#160;</text>
<text text-anchor="start" x="306.88" y="-206.15" font-family="Roboto" font-size="8.00"> &#160;&#160;&#160;&#160;&#160;</text>
<text text-anchor="start" x="324.88" y="-206.15" font-family="Roboto" font-weight="bold" font-size="8.00">address</text>
<text text-anchor="start" x="363.12" y="-206.15" font-family="Roboto" font-size="8.00"> &#160;&#160;&#160;&#160;&#160;</text>
<text text-anchor="start" x="384.75" y="-206.15" font-family="Roboto" font-size="8.00"> &#160;&#160;&#160;&#160;&#160;</text>
<text text-anchor="start" x="402.75" y="-206.15" font-family="Roboto" font-weight="bold" font-size="8.00">OneToOneField (id)</text>
<text text-anchor="start" x="497.25" y="-206.15" font-family="Roboto" font-size="8.00"> &#160;&#160;&#160;&#160;&#160;</text>
<text text-anchor="start" x="307" y="-193.15" font-family="Roboto" font-size="8.00"> &#160;&#160;&#160;&#160;&#160;</text>
<text text-anchor="start" x="325" y="-193.15" font-family="Roboto" font-size="8.00">title</text>
<text text-anchor="start" x="340.75" y="-193.15" font-family="Roboto" font-size="8.00"> &#160;&#160;&#160;&#160;&#160;</text>
<text text-anchor="start" x="385" y="-193.15" font-family="Roboto" font-size="8.00"> &#160;&#160;&#160;&#160;&#160;</text>
<text text-anchor="start" x="403" y="-193.15" font-family="Roboto" font-size="8.00">CharField</text>
<text text-anchor="start" x="442.75" y="-193.15" font-family="Roboto" font-size="8.00"> &#160;&#160;&#160;&#160;&#160;</text>
<polygon fill="none" stroke="black" points="304,-187.75 304,-249.75 518,-249.75 518,-187.75 304,-187.75"/>
</g>
<!-- lettings_models_Letting&#45;&gt;lettings_models_Address -->
<g id="edge2" class="edge">
<title>lettings_models_Letting&#45;&gt;lettings_models_Address</title>
<path fill="none" stroke="black" d="M411,-183.92C411,-170.11 411,-153.71 411,-137.99"/>
<text text-anchor="middle" x="447.75" y="-158.15" font-family="Roboto" font-size="8.00"> address (letting)</text>
</g>
</g>
</svg>
