<?xml version="1.0" encoding="UTF-8" standalone="no"?>
<!DOCTYPE svg PUBLIC "-//W3C//DTD SVG 1.1//EN"
 "http://www.w3.org/Graphics/SVG/1.1/DTD/svg11.dtd">
<!-- Generated by graphviz version 9.0.0 (20230911.1827)
 -->
<!-- Title: db_structure Pages: 1 -->
<svg width="358pt" height="382pt"
 viewBox="0.00 0.00 357.75 382.00" xmlns="http://www.w3.org/2000/svg" xmlns:xlink="http://www.w3.org/1999/xlink">
<g id="graph0" class="graph" transform="scale(1 1) rotate(0) translate(4 378)">
<title>db_structure</title>
<polygon fill="white" stroke="none" points="-4,4 -4,-378 353.75,-378 353.75,4 -4,4"/>
<text text-anchor="middle" x="174.88" y="-351" font-family="Helvetica, Arial, sans-serif" font-size="20.00">Schéma de la base de données</text>
<!-- user -->
<g id="node1" class="node">
<title>user</title>
<polygon fill="white" stroke="none" points="214,-104 0,-104 0,0 214,0 214,-104"/>
<polygon fill="grey" stroke="none" points="0,-66 0,-104 214,-104 214,-66 0,-66"/>
<polygon fill="none" stroke="#000000" stroke-opacity="0.266667" points="0,-66 0,-104 214,-104 214,-66 0,-66"/>
<text text-anchor="start" x="90.88" y="-86.7" font-family="Helvetica,Arial,sans-serif" font-weight="bold" font-size="14.00">User</text>
<text text-anchor="start" x="5" y="-72.7" font-family="Helvetica,Arial,sans-serif" font-size="14.00">django.contrib.auth.models.User</text>
<polygon fill="none" stroke="#000000" stroke-opacity="0.266667" points="0,0 0,-66 214,-66 214,0 0,0"/>
<text text-anchor="start" x="75.5" y="-40.7" font-family="Helvetica,Arial,sans-serif" font-size="14.00">username</text>
<text text-anchor="start" x="76.25" y="-15.2" font-family="Helvetica,Arial,sans-serif" font-size="14.00">password</text>
</g>
<!-- profile -->
<g id="node2" class="node">
<title>profile</title>
<polygon fill="white" stroke="none" points="349.75,-98.25 250,-98.25 250,-5.75 349.75,-5.75 349.75,-98.25"/>
<polygon fill="grey" stroke="none" points="250,-71.75 250,-98.25 349.75,-98.25 349.75,-71.75 250,-71.75"/>
<polygon fill="none" stroke="#000000" stroke-opacity="0.266667" points="250,-71.75 250,-98.25 349.75,-98.25 349.75,-71.75 250,-71.75"/>
<text text-anchor="start" x="277.38" y="-80.95" font-family="Helvetica,Arial,sans-serif" font-weight="bold" font-size="14.00">Profile</text>
<polygon fill="none" stroke="#000000" stroke-opacity="0.266667" points="250,-5.75 250,-71.75 349.75,-71.75 349.75,-5.75 250,-5.75"/>
<text text-anchor="start" x="286" y="-46.45" font-family="Helvetica,Arial,sans-serif" font-size="14.00">user</text>
<text text-anchor="start" x="262" y="-20.95" font-family="Helvetica,Arial,sans-serif" font-size="14.00">favorite_city</text>
</g>
<!-- user&#45;&gt;profile -->
<g id="edge1" class="edge">
<title>user&#45;&gt;profile</title>
<path fill="none" stroke="black" d="M213.76,-52C226.49,-52 238.98,-52 250.29,-52"/>
<text text-anchor="middle" x="246.92" y="-38.7" font-family="Times New Roman,serif" font-size="14.00">1</text>
</g>
<!-- address -->
<g id="node3" class="node">
<title>address</title>
<polygon fill="white" stroke="none" points="173.38,-342 40.62,-342 40.62,-122 173.38,-122 173.38,-342"/>
<polygon fill="grey" stroke="none" points="40.62,-315.5 40.62,-342 173.38,-342 173.38,-315.5 40.62,-315.5"/>
<polygon fill="none" stroke="#000000" stroke-opacity="0.266667" points="40.62,-315.5 40.62,-342 173.38,-342 173.38,-315.5 40.62,-315.5"/>
<text text-anchor="start" x="77.75" y="-324.7" font-family="Helvetica,Arial,sans-serif" font-weight="bold" font-size="14.00">Address</text>
<polygon fill="none" stroke="#000000" stroke-opacity="0.266667" points="40.62,-122 40.62,-315.5 173.38,-315.5 173.38,-122 40.62,-122"/>
<text text-anchor="start" x="83" y="-290.2" font-family="Helvetica,Arial,sans-serif" font-size="14.00">number</text>
<text text-anchor="start" x="89" y="-264.7" font-family="Helvetica,Arial,sans-serif" font-size="14.00">street</text>
<text text-anchor="start" x="96.5" y="-239.2" font-family="Helvetica,Arial,sans-serif" font-size="14.00">city</text>
<text text-anchor="start" x="91.62" y="-213.7" font-family="Helvetica,Arial,sans-serif" font-size="14.00">state</text>
<text text-anchor="start" x="77.75" y="-188.2" font-family="Helvetica,Arial,sans-serif" font-size="14.00">zip_code</text>
<text text-anchor="start" x="52.62" y="-162.7" font-family="Helvetica,Arial,sans-serif" font-size="14.00">county_iso_code</text>
<text text-anchor="start" x="69.12" y="-137.2" font-family="Helvetica,Arial,sans-serif" font-size="14.00">favorite_city</text>
</g>
<!-- letting -->
<g id="node4" class="node">
<title>letting</title>
<polygon fill="white" stroke="none" points="337.75,-278.25 262,-278.25 262,-185.75 337.75,-185.75 337.75,-278.25"/>
<polygon fill="grey" stroke="none" points="262,-251.75 262,-278.25 337.75,-278.25 337.75,-251.75 262,-251.75"/>
<polygon fill="none" stroke="#000000" stroke-opacity="0.266667" points="262,-251.75 262,-278.25 337.75,-278.25 337.75,-251.75 262,-251.75"/>
<text text-anchor="start" x="275.88" y="-260.95" font-family="Helvetica,Arial,sans-serif" font-weight="bold" font-size="14.00">Letting</text>
<polygon fill="none" stroke="#000000" stroke-opacity="0.266667" points="262,-185.75 262,-251.75 337.75,-251.75 337.75,-185.75 262,-185.75"/>
<text text-anchor="start" x="289" y="-226.45" font-family="Helvetica,Arial,sans-serif" font-size="14.00">title</text>
<text text-anchor="start" x="274" y="-200.95" font-family="Helvetica,Arial,sans-serif" font-size="14.00">address</text>
</g>
<!-- address&#45;&gt;letting -->
<g id="edge2" class="edge">
<title>address&#45;&gt;letting</title>
<path fill="none" stroke="black" d="M173.15,-232C202.85,-232 236.92,-232 262.09,-232"/>
<text text-anchor="middle" x="258.72" y="-218.7" font-family="Times New Roman,serif" font-size="14.00">1</text>
</g>
</g>
</svg>
