<?xml version="1.0" encoding="UTF-8" standalone="no"?>
<!DOCTYPE svg PUBLIC "-//W3C//DTD SVG 1.1//EN"
 "http://www.w3.org/Graphics/SVG/1.1/DTD/svg11.dtd">
<!-- Generated by graphviz version 9.0.0 (20230911.1827)
 -->
<!-- Title: db_structure Pages: 1 -->
<svg width="449pt" height="831pt"
 viewBox="0.00 0.00 448.75 831.12" xmlns="http://www.w3.org/2000/svg" xmlns:xlink="http://www.w3.org/1999/xlink">
<g id="graph0" class="graph" transform="scale(1 1) rotate(0) translate(4 827.12)">
<title>db_structure</title>
<polygon fill="white" stroke="none" points="-4,4 -4,-827.12 444.75,-827.12 444.75,4 -4,4"/>
<text text-anchor="middle" x="220.38" y="-800.12" font-family="Helvetica, Arial, sans-serif" font-size="20.00">Schéma de la base de données</text>
<!-- user -->
<g id="node1" class="node">
<title>user</title>
<polygon fill="white" stroke="none" points="214,-147.12 0,-147.12 0,-43.12 214,-43.12 214,-147.12"/>
<polygon fill="grey" stroke="none" points="0,-109.12 0,-147.12 214,-147.12 214,-109.12 0,-109.12"/>
<polygon fill="none" stroke="#000000" stroke-opacity="0.266667" points="0,-109.12 0,-147.12 214,-147.12 214,-109.12 0,-109.12"/>
<text text-anchor="start" x="90.88" y="-129.82" font-family="Helvetica,Arial,sans-serif" font-weight="bold" font-size="14.00">User</text>
<text text-anchor="start" x="5" y="-115.82" font-family="Helvetica,Arial,sans-serif" font-size="14.00">django.contrib.auth.models.User</text>
<polygon fill="none" stroke="#000000" stroke-opacity="0.266667" points="0,-43.12 0,-109.12 214,-109.12 214,-43.12 0,-43.12"/>
<text text-anchor="start" x="75.5" y="-83.83" font-family="Helvetica,Arial,sans-serif" font-size="14.00">username</text>
<text text-anchor="start" x="76.25" y="-58.33" font-family="Helvetica,Arial,sans-serif" font-size="14.00">password</text>
</g>
<!-- profile -->
<g id="node2" class="node">
<title>profile</title>
<polygon fill="white" stroke="none" points="440.75,-190.25 250,-190.25 250,0 440.75,0 440.75,-190.25"/>
<polygon fill="grey" stroke="none" points="250,-163.75 250,-190.25 440.75,-190.25 440.75,-163.75 250,-163.75"/>
<polygon fill="none" stroke="#000000" stroke-opacity="0.266667" points="250,-163.75 250,-190.25 440.75,-190.25 440.75,-163.75 250,-163.75"/>
<text text-anchor="start" x="322.88" y="-172.95" font-family="Helvetica,Arial,sans-serif" font-weight="bold" font-size="14.00">Profile</text>
<polygon fill="none" stroke="#000000" stroke-opacity="0.266667" points="250,0 250,-163.75 440.75,-163.75 440.75,0 250,0"/>
<text text-anchor="start" x="264" y="-137.45" font-family="Helvetica,Arial,sans-serif" font-weight="bold" font-size="14.00">user</text>
<text text-anchor="start" x="264" y="-117.85" font-family="Helvetica,Arial,sans-serif" font-size="12.00">ForeignKey</text>
<text text-anchor="start" x="264" y="-101.35" font-family="Helvetica,Arial,sans-serif" font-style="italic" font-size="12.00">on_delete=models.CASCADE</text>
<text text-anchor="start" x="264" y="-72.2" font-family="Helvetica,Arial,sans-serif" font-weight="bold" font-size="14.00">favorite_city</text>
<text text-anchor="start" x="264" y="-52.6" font-family="Helvetica,Arial,sans-serif" font-size="12.00">CharField</text>
<text text-anchor="start" x="264" y="-36.1" font-family="Helvetica,Arial,sans-serif" font-style="italic" font-size="12.00">options: max_length=64</text>
<text text-anchor="start" x="264" y="-17.85" font-family="Helvetica,Arial,sans-serif" font-style="italic" font-size="12.00">blank=True</text>
</g>
<!-- user&#45;&gt;profile -->
<g id="edge1" class="edge">
<title>user&#45;&gt;profile</title>
<path fill="none" stroke="black" d="M213.74,-95.12C225.91,-95.12 238.26,-95.12 250.26,-95.12"/>
<text text-anchor="middle" x="246.89" y="-81.83" font-family="Times New Roman,serif" font-size="14.00">1</text>
</g>
<!-- address -->
<g id="node3" class="node">
<title>address</title>
<polygon fill="white" stroke="none" points="185.12,-791.12 28.88,-791.12 28.88,-165.12 185.12,-165.12 185.12,-791.12"/>
<polygon fill="grey" stroke="none" points="28.88,-764.62 28.88,-791.12 185.12,-791.12 185.12,-764.62 28.88,-764.62"/>
<polygon fill="none" stroke="#000000" stroke-opacity="0.266667" points="28.88,-764.62 28.88,-791.12 185.12,-791.12 185.12,-764.62 28.88,-764.62"/>
<text text-anchor="start" x="77.75" y="-773.83" font-family="Helvetica,Arial,sans-serif" font-weight="bold" font-size="14.00">Address</text>
<polygon fill="none" stroke="#000000" stroke-opacity="0.266667" points="28.88,-165.12 28.88,-764.62 185.12,-764.62 185.12,-165.12 28.88,-165.12"/>
<text text-anchor="start" x="42.88" y="-738.33" font-family="Helvetica,Arial,sans-serif" font-weight="bold" font-size="14.00">number</text>
<text text-anchor="start" x="42.88" y="-718.73" font-family="Helvetica,Arial,sans-serif" font-size="12.00">CharField</text>
<text text-anchor="start" x="42.88" y="-702.23" font-family="Helvetica,Arial,sans-serif" font-style="italic" font-size="12.00">options: max_length=64</text>
<text text-anchor="start" x="42.88" y="-683.98" font-family="Helvetica,Arial,sans-serif" font-style="italic" font-size="12.00">blank=True</text>
<text text-anchor="start" x="42.88" y="-654.83" font-family="Helvetica,Arial,sans-serif" font-weight="bold" font-size="14.00">street</text>
<text text-anchor="start" x="42.88" y="-635.23" font-family="Helvetica,Arial,sans-serif" font-size="12.00">CharField</text>
<text text-anchor="start" x="42.88" y="-618.73" font-family="Helvetica,Arial,sans-serif" font-style="italic" font-size="12.00">options: max_length=64</text>
<text text-anchor="start" x="42.88" y="-600.48" font-family="Helvetica,Arial,sans-serif" font-style="italic" font-size="12.00">blank=True</text>
<text text-anchor="start" x="42.88" y="-571.33" font-family="Helvetica,Arial,sans-serif" font-weight="bold" font-size="14.00">city</text>
<text text-anchor="start" x="42.88" y="-551.73" font-family="Helvetica,Arial,sans-serif" font-size="12.00">CharField</text>
<text text-anchor="start" x="42.88" y="-535.23" font-family="Helvetica,Arial,sans-serif" font-style="italic" font-size="12.00">options: max_length=64</text>
<text text-anchor="start" x="42.88" y="-516.98" font-family="Helvetica,Arial,sans-serif" font-style="italic" font-size="12.00">blank=True</text>
<text text-anchor="start" x="42.88" y="-487.82" font-family="Helvetica,Arial,sans-serif" font-weight="bold" font-size="14.00">state</text>
<text text-anchor="start" x="42.88" y="-468.23" font-family="Helvetica,Arial,sans-serif" font-size="12.00">CharField</text>
<text text-anchor="start" x="42.88" y="-451.73" font-family="Helvetica,Arial,sans-serif" font-style="italic" font-size="12.00">options: max_length=64</text>
<text text-anchor="start" x="42.88" y="-433.48" font-family="Helvetica,Arial,sans-serif" font-style="italic" font-size="12.00">blank=True</text>
<text text-anchor="start" x="42.88" y="-404.32" font-family="Helvetica,Arial,sans-serif" font-weight="bold" font-size="14.00">zip_code</text>
<text text-anchor="start" x="42.88" y="-384.73" font-family="Helvetica,Arial,sans-serif" font-size="12.00">CharField</text>
<text text-anchor="start" x="42.88" y="-368.23" font-family="Helvetica,Arial,sans-serif" font-style="italic" font-size="12.00">options: max_length=64</text>
<text text-anchor="start" x="42.88" y="-349.98" font-family="Helvetica,Arial,sans-serif" font-style="italic" font-size="12.00">blank=True</text>
<text text-anchor="start" x="42.88" y="-320.82" font-family="Helvetica,Arial,sans-serif" font-weight="bold" font-size="14.00">country_iso_code</text>
<text text-anchor="start" x="42.88" y="-301.23" font-family="Helvetica,Arial,sans-serif" font-size="12.00">CharField</text>
<text text-anchor="start" x="42.88" y="-284.73" font-family="Helvetica,Arial,sans-serif" font-style="italic" font-size="12.00">options: max_length=64</text>
<text text-anchor="start" x="42.88" y="-266.48" font-family="Helvetica,Arial,sans-serif" font-style="italic" font-size="12.00">blank=True</text>
<text text-anchor="start" x="42.88" y="-237.32" font-family="Helvetica,Arial,sans-serif" font-weight="bold" font-size="14.00">favorite_city</text>
<text text-anchor="start" x="42.88" y="-217.72" font-family="Helvetica,Arial,sans-serif" font-size="12.00">CharField</text>
<text text-anchor="start" x="42.88" y="-201.22" font-family="Helvetica,Arial,sans-serif" font-style="italic" font-size="12.00">options: max_length=64</text>
<text text-anchor="start" x="42.88" y="-182.97" font-family="Helvetica,Arial,sans-serif" font-style="italic" font-size="12.00">blank=True</text>
</g>
<!-- letting -->
<g id="node4" class="node">
<title>letting</title>
<polygon fill="white" stroke="none" points="383.25,-524.38 307.5,-524.38 307.5,-431.88 383.25,-431.88 383.25,-524.38"/>
<polygon fill="grey" stroke="none" points="307.5,-497.88 307.5,-524.38 383.25,-524.38 383.25,-497.88 307.5,-497.88"/>
<polygon fill="none" stroke="#000000" stroke-opacity="0.266667" points="307.5,-497.88 307.5,-524.38 383.25,-524.38 383.25,-497.88 307.5,-497.88"/>
<text text-anchor="start" x="321.38" y="-507.07" font-family="Helvetica,Arial,sans-serif" font-weight="bold" font-size="14.00">Letting</text>
<polygon fill="none" stroke="#000000" stroke-opacity="0.266667" points="307.5,-431.88 307.5,-497.88 383.25,-497.88 383.25,-431.88 307.5,-431.88"/>
<text text-anchor="start" x="334.5" y="-472.57" font-family="Helvetica,Arial,sans-serif" font-size="14.00">title</text>
<text text-anchor="start" x="319.5" y="-447.07" font-family="Helvetica,Arial,sans-serif" font-size="14.00">address</text>
</g>
<!-- address&#45;&gt;letting -->
<g id="edge2" class="edge">
<title>address&#45;&gt;letting</title>
<path fill="none" stroke="black" d="M185.07,-478.12C226.3,-478.12 275.15,-478.12 307.78,-478.12"/>
<text text-anchor="middle" x="304.41" y="-480.57" font-family="Times New Roman,serif" font-size="14.00">1</text>
</g>
</g>
</svg>
