<?xml version="1.0" encoding="UTF-8" standalone="no"?>
<!DOCTYPE svg PUBLIC "-//W3C//DTD SVG 1.1//EN"
 "http://www.w3.org/Graphics/SVG/1.1/DTD/svg11.dtd">
<!-- Generated by graphviz version 9.0.0 (20230911.1827)
 -->
<!-- Title: db_structure Pages: 1 -->
<svg width="360pt" height="374pt"
 viewBox="0.00 0.00 359.75 373.50" xmlns="http://www.w3.org/2000/svg" xmlns:xlink="http://www.w3.org/1999/xlink">
<g id="graph0" class="graph" transform="scale(1 1) rotate(0) translate(4 369.5)">
<title>db_structure</title>
<polygon fill="white" stroke="none" points="-4,4 -4,-369.5 355.75,-369.5 355.75,4 -4,4"/>
<text text-anchor="middle" x="175.88" y="-342.5" font-family="Helvetica, Arial, sans-serif" font-size="20.00">Schéma de la base de données</text>
<!-- user -->
<g id="node1" class="node">
<title>user</title>
<polygon fill="lightgrey" stroke="none" points="216,-95 0,-95 0,0 216,0 216,-95"/>
<polygon fill="grey" stroke="none" points="3,-58 3,-92 213,-92 213,-58 3,-58"/>
<polygon fill="none" stroke="#000000" stroke-opacity="0.266667" points="3,-58 3,-92 213,-92 213,-58 3,-58"/>
<text text-anchor="start" x="91.88" y="-76.7" font-family="Helvetica,Arial,sans-serif" font-weight="bold" font-size="14.00">User</text>
<text text-anchor="start" x="6" y="-62.7" font-family="Helvetica,Arial,sans-serif" font-size="14.00">django.contrib.auth.models.User</text>
<polygon fill="none" stroke="#000000" stroke-opacity="0.266667" points="3,-3 3,-56 213,-56 213,-3 3,-3"/>
<text text-anchor="start" x="76.5" y="-35.7" font-family="Helvetica,Arial,sans-serif" font-size="14.00">username</text>
<text text-anchor="start" x="77.25" y="-13.2" font-family="Helvetica,Arial,sans-serif" font-size="14.00">password</text>
<polygon fill="none" stroke="#000000" stroke-opacity="0.266667" points="0,0 0,-95 216,-95 216,0 0,0"/>
</g>
<!-- profile -->
<g id="node2" class="node">
<title>profile</title>
<polygon fill="lightgrey" stroke="none" points="351.75,-93.75 252,-93.75 252,-1.25 351.75,-1.25 351.75,-93.75"/>
<polygon fill="none" stroke="grey" points="252,-67.25 252,-93.75 351.75,-93.75 351.75,-67.25 252,-67.25"/>
<text text-anchor="start" x="279.38" y="-76.45" font-family="Helvetica,Arial,sans-serif" font-weight="bold" font-size="14.00">Profile</text>
<polygon fill="none" stroke="#000000" stroke-opacity="0.266667" points="252,-1.25 252,-67.25 351.75,-67.25 351.75,-1.25 252,-1.25"/>
<text text-anchor="start" x="288" y="-41.95" font-family="Helvetica,Arial,sans-serif" font-size="14.00">user</text>
<text text-anchor="start" x="264" y="-16.45" font-family="Helvetica,Arial,sans-serif" font-size="14.00">favorite_city</text>
</g>
<!-- user&#45;&gt;profile -->
<g id="edge1" class="edge">
<title>user&#45;&gt;profile</title>
<path fill="none" stroke="black" d="M215.88,-47.5C228.61,-47.5 241.09,-47.5 252.39,-47.5"/>
<text text-anchor="middle" x="249.01" y="-34.2" font-family="Times New Roman,serif" font-size="14.00">1</text>
</g>
<!-- address -->
<g id="node3" class="node">
<title>address</title>
<polygon fill="lightgrey" stroke="none" points="174.38,-333.5 41.62,-333.5 41.62,-113.5 174.38,-113.5 174.38,-333.5"/>
<polygon fill="none" stroke="grey" points="41.62,-307 41.62,-333.5 174.38,-333.5 174.38,-307 41.62,-307"/>
<text text-anchor="start" x="78.75" y="-316.2" font-family="Helvetica,Arial,sans-serif" font-weight="bold" font-size="14.00">Address</text>
<polygon fill="none" stroke="#000000" stroke-opacity="0.266667" points="41.62,-113.5 41.62,-307 174.38,-307 174.38,-113.5 41.62,-113.5"/>
<text text-anchor="start" x="84" y="-281.7" font-family="Helvetica,Arial,sans-serif" font-size="14.00">number</text>
<text text-anchor="start" x="90" y="-256.2" font-family="Helvetica,Arial,sans-serif" font-size="14.00">street</text>
<text text-anchor="start" x="97.5" y="-230.7" font-family="Helvetica,Arial,sans-serif" font-size="14.00">city</text>
<text text-anchor="start" x="92.62" y="-205.2" font-family="Helvetica,Arial,sans-serif" font-size="14.00">state</text>
<text text-anchor="start" x="78.75" y="-179.7" font-family="Helvetica,Arial,sans-serif" font-size="14.00">zip_code</text>
<text text-anchor="start" x="53.62" y="-154.2" font-family="Helvetica,Arial,sans-serif" font-size="14.00">county_iso_code</text>
<text text-anchor="start" x="70.12" y="-128.7" font-family="Helvetica,Arial,sans-serif" font-size="14.00">favorite_city</text>
</g>
<!-- letting -->
<g id="node4" class="node">
<title>letting</title>
<polygon fill="lightgrey" stroke="none" points="339.75,-269.75 264,-269.75 264,-177.25 339.75,-177.25 339.75,-269.75"/>
<polygon fill="none" stroke="grey" points="264,-243.25 264,-269.75 339.75,-269.75 339.75,-243.25 264,-243.25"/>
<text text-anchor="start" x="277.88" y="-252.45" font-family="Helvetica,Arial,sans-serif" font-weight="bold" font-size="14.00">Letting</text>
<polygon fill="none" stroke="#000000" stroke-opacity="0.266667" points="264,-177.25 264,-243.25 339.75,-243.25 339.75,-177.25 264,-177.25"/>
<text text-anchor="start" x="291" y="-217.95" font-family="Helvetica,Arial,sans-serif" font-size="14.00">title</text>
<text text-anchor="start" x="276" y="-192.45" font-family="Helvetica,Arial,sans-serif" font-size="14.00">address</text>
</g>
<!-- address&#45;&gt;letting -->
<g id="edge2" class="edge">
<title>address&#45;&gt;letting</title>
<path fill="none" stroke="black" d="M174.23,-223.5C204.21,-223.5 238.67,-223.5 264.07,-223.5"/>
<text text-anchor="middle" x="260.69" y="-210.2" font-family="Times New Roman,serif" font-size="14.00">1</text>
</g>
</g>
</svg>
