<?xml version="1.0" encoding="UTF-8" standalone="no"?>
<!DOCTYPE svg PUBLIC "-//W3C//DTD SVG 1.1//EN"
 "http://www.w3.org/Graphics/SVG/1.1/DTD/svg11.dtd">
<!-- Generated by graphviz version 9.0.0 (20230911.1827)
 -->
<!-- Title: db_structure Pages: 1 -->
<svg width="311pt" height="382pt"
 viewBox="0.00 0.00 311.25 382.25" xmlns="http://www.w3.org/2000/svg" xmlns:xlink="http://www.w3.org/1999/xlink">
<g id="graph0" class="graph" transform="scale(1 1) rotate(0) translate(4 378.25)">
<title>db_structure</title>
<polygon fill="white" stroke="none" points="-4,4 -4,-378.25 307.25,-378.25 307.25,4 -4,4"/>
<text text-anchor="middle" x="151.62" y="-351.25" font-family="Helvetica, Arial, sans-serif" font-size="20.00">Schéma de la base de données</text>
<!-- user -->
<g id="node1" class="node">
<title>user</title>
<polygon fill="red" stroke="none" points="130.25,-104.5 37.25,-104.5 37.25,0 130.25,0 130.25,-104.5"/>
<polygon fill="none" stroke="#000000" stroke-opacity="0.266667" points="37.25,-78 37.25,-104.5 130.25,-104.5 130.25,-78 37.25,-78"/>
<text text-anchor="start" x="67.62" y="-87.2" font-family="Helvetica,Arial,sans-serif" font-weight="bold" font-size="14.00">User</text>
<polygon fill="none" stroke="#000000" stroke-opacity="0.266667" points="37.25,0 37.25,-78 130.25,-78 130.25,0 37.25,0"/>
<text text-anchor="start" x="52.25" y="-49.7" font-family="Helvetica,Arial,sans-serif" font-size="14.00">username</text>
<text text-anchor="start" x="53" y="-18.2" font-family="Helvetica,Arial,sans-serif" font-size="14.00">password</text>
</g>
<!-- profile -->
<g id="node2" class="node">
<title>profile</title>
<polygon fill="lightgreen" stroke="none" points="285.88,-99.5 186.12,-99.5 186.12,-7 285.88,-7 285.88,-99.5"/>
<polygon fill="none" stroke="#000000" stroke-opacity="0.266667" points="186.12,-73 186.12,-99.5 285.88,-99.5 285.88,-73 186.12,-73"/>
<text text-anchor="start" x="213.5" y="-82.2" font-family="Helvetica,Arial,sans-serif" font-weight="bold" font-size="14.00">Profile</text>
<polygon fill="none" stroke="#000000" stroke-opacity="0.266667" points="186.12,-7 186.12,-73 285.88,-73 285.88,-7 186.12,-7"/>
<text text-anchor="start" x="222.12" y="-47.7" font-family="Helvetica,Arial,sans-serif" font-size="14.00">user</text>
<text text-anchor="start" x="198.12" y="-22.2" font-family="Helvetica,Arial,sans-serif" font-size="14.00">favorite_city</text>
</g>
<!-- user&#45;&gt;profile -->
<g id="edge1" class="edge">
<title>user&#45;&gt;profile:user</title>
<path fill="none" stroke="black" d="M130.08,-52.25C149.99,-52.25 173.66,-52.25 195,-52.25"/>
<text text-anchor="middle" x="198.38" y="-38.95" font-family="Times New Roman,serif" font-size="14.00">1</text>
</g>
<!-- address -->
<g id="node3" class="node">
<title>address</title>
<polygon fill="lightblue" stroke="none" points="150.12,-342.25 17.38,-342.25 17.38,-122.25 150.12,-122.25 150.12,-342.25"/>
<polygon fill="none" stroke="#000000" stroke-opacity="0.266667" points="17.38,-315.75 17.38,-342.25 150.12,-342.25 150.12,-315.75 17.38,-315.75"/>
<text text-anchor="start" x="54.5" y="-324.95" font-family="Helvetica,Arial,sans-serif" font-weight="bold" font-size="14.00">Address</text>
<polygon fill="none" stroke="#000000" stroke-opacity="0.266667" points="17.38,-122.25 17.38,-315.75 150.12,-315.75 150.12,-122.25 17.38,-122.25"/>
<text text-anchor="start" x="59.75" y="-290.45" font-family="Helvetica,Arial,sans-serif" font-size="14.00">number</text>
<text text-anchor="start" x="65.75" y="-264.95" font-family="Helvetica,Arial,sans-serif" font-size="14.00">street</text>
<text text-anchor="start" x="73.25" y="-239.45" font-family="Helvetica,Arial,sans-serif" font-size="14.00">city</text>
<text text-anchor="start" x="68.38" y="-213.95" font-family="Helvetica,Arial,sans-serif" font-size="14.00">state</text>
<text text-anchor="start" x="54.5" y="-188.45" font-family="Helvetica,Arial,sans-serif" font-size="14.00">zip_code</text>
<text text-anchor="start" x="29.38" y="-162.95" font-family="Helvetica,Arial,sans-serif" font-size="14.00">county_iso_code</text>
<text text-anchor="start" x="45.88" y="-137.45" font-family="Helvetica,Arial,sans-serif" font-size="14.00">favorite_city</text>
</g>
<!-- letting -->
<g id="node4" class="node">
<title>letting</title>
<polygon fill="purple" stroke="none" points="273.88,-304.5 198.12,-304.5 198.12,-212 273.88,-212 273.88,-304.5"/>
<polygon fill="none" stroke="#000000" stroke-opacity="0.266667" points="198.12,-278 198.12,-304.5 273.88,-304.5 273.88,-278 198.12,-278"/>
<text text-anchor="start" x="212" y="-287.2" font-family="Helvetica,Arial,sans-serif" font-weight="bold" font-size="14.00">Letting</text>
<polygon fill="none" stroke="#000000" stroke-opacity="0.266667" points="198.12,-212 198.12,-278 273.88,-278 273.88,-212 198.12,-212"/>
<text text-anchor="start" x="225.12" y="-252.7" font-family="Helvetica,Arial,sans-serif" font-size="14.00">title</text>
<text text-anchor="start" x="210.12" y="-227.2" font-family="Helvetica,Arial,sans-serif" font-size="14.00">address</text>
</g>
<!-- address&#45;&gt;letting -->
<g id="edge2" class="edge">
<title>address&#45;&gt;letting:address</title>
<path fill="none" stroke="black" d="M150.1,-232.25C168.5,-232.25 188.54,-232.25 207,-232.25"/>
<text text-anchor="middle" x="210.38" y="-234.7" font-family="Times New Roman,serif" font-size="14.00">1</text>
</g>
</g>
</svg>
