<?xml version="1.0" encoding="UTF-8" standalone="no"?>
<!DOCTYPE svg PUBLIC "-//W3C//DTD SVG 1.1//EN"
 "http://www.w3.org/Graphics/SVG/1.1/DTD/svg11.dtd">
<!-- Generated by graphviz version 9.0.0 (20230911.1827)
 -->
<!-- Title: model_graph Pages: 1 -->
<svg width="463pt" height="246pt"
 viewBox="0.00 0.00 463.00 245.75" xmlns="http://www.w3.org/2000/svg" xmlns:xlink="http://www.w3.org/1999/xlink">
<g id="graph0" class="graph" transform="scale(1 1) rotate(0) translate(4 241.75)">
<title>model_graph</title>
<polygon fill="white" stroke="none" points="-4,4 -4,-241.75 459,-241.75 459,4 -4,4"/>
<!-- profiles_models_Profile -->
<g id="node1" class="node">
<title>profiles_models_Profile</title>
<polygon fill="white" stroke="none" points="8,-171.75 8,-233.75 211,-233.75 211,-171.75 8,-171.75"/>
<polygon fill="#1b563f" stroke="none" points="9,-211.75 9,-232.75 210,-232.75 210,-211.75 9,-211.75"/>
<text text-anchor="start" x="70.5" y="-219.25" font-family="Roboto" font-size="8.00"> &#160;&#160;&#160;</text>
<text text-anchor="start" x="82.5" y="-219.25" font-family="Roboto" font-weight="bold" font-size="10.00" fill="white"> &#160;&#160;&#160;Profile &#160;&#160;&#160;</text>
<text text-anchor="start" x="11" y="-203.15" font-family="Roboto" font-size="8.00"> &#160;&#160;&#160;</text>
<text text-anchor="start" x="23" y="-203.15" font-family="Roboto" font-weight="bold" font-size="8.00">id</text>
<text text-anchor="start" x="32" y="-203.15" font-family="Roboto" font-size="8.00"> &#160;&#160;&#160;</text>
<text text-anchor="start" x="90" y="-203.15" font-family="Roboto" font-size="8.00"> &#160;&#160;&#160;</text>
<text text-anchor="start" x="102" y="-203.15" font-family="Roboto" font-weight="bold" font-size="8.00">AutoField</text>
<text text-anchor="start" x="147.75" y="-203.15" font-family="Roboto" font-size="8.00"> &#160;&#160;&#160;</text>
<text text-anchor="start" x="11" y="-190.15" font-family="Roboto" font-size="8.00"> &#160;&#160;&#160;</text>
<text text-anchor="start" x="23" y="-190.15" font-family="Roboto" font-weight="bold" font-size="8.00">user</text>
<text text-anchor="start" x="44" y="-190.15" font-family="Roboto" font-size="8.00"> &#160;&#160;&#160;</text>
<text text-anchor="start" x="89.75" y="-190.15" font-family="Roboto" font-size="8.00"> &#160;&#160;&#160;</text>
<text text-anchor="start" x="101.75" y="-190.15" font-family="Roboto" font-weight="bold" font-size="8.00">OneToOneField (id)</text>
<text text-anchor="start" x="196.25" y="-190.15" font-family="Roboto" font-size="8.00"> &#160;&#160;&#160;</text>
<text text-anchor="start" x="11" y="-177.15" font-family="Roboto" font-size="8.00"> &#160;&#160;&#160;</text>
<text text-anchor="start" x="23" y="-177.15" font-family="Roboto" font-size="8.00" fill="#7b7b7b">favorite_city</text>
<text text-anchor="start" x="74" y="-177.15" font-family="Roboto" font-size="8.00"> &#160;&#160;&#160;</text>
<text text-anchor="start" x="90" y="-177.15" font-family="Roboto" font-size="8.00"> &#160;&#160;&#160;</text>
<text text-anchor="start" x="102" y="-177.15" font-family="Roboto" font-size="8.00" fill="#7b7b7b">CharField</text>
<text text-anchor="start" x="141.75" y="-177.15" font-family="Roboto" font-size="8.00"> &#160;&#160;&#160;</text>
<polygon fill="none" stroke="black" points="8,-171.75 8,-233.75 211,-233.75 211,-171.75 8,-171.75"/>
</g>
<!-- django_contrib_auth_models_User -->
<g id="node4" class="node">
<title>django_contrib_auth_models_User</title>
<polygon fill="white" stroke="none" points="85.12,-49.88 85.12,-72.12 133.88,-72.12 133.88,-49.88 85.12,-49.88"/>
<polygon fill="#1b563f" stroke="none" points="85.12,-49.88 85.12,-72.12 133.88,-72.12 133.88,-49.88 85.12,-49.88"/>
<text text-anchor="start" x="89.62" y="-57.73" font-family="Roboto" font-size="8.00"> &#160;</text>
<text text-anchor="start" x="95.62" y="-57.73" font-family="Roboto" font-size="12.00" fill="white">User</text>
<text text-anchor="start" x="123.38" y="-57.73" font-family="Roboto" font-size="8.00"> &#160;</text>
</g>
<!-- profiles_models_Profile&#45;&gt;django_contrib_auth_models_User -->
<g id="edge1" class="edge">
<title>profiles_models_Profile&#45;&gt;django_contrib_auth_models_User</title>
<path fill="none" stroke="black" d="M109.5,-167.92C109.5,-139.81 109.5,-100.98 109.5,-78.99"/>
<text text-anchor="middle" x="138.75" y="-142.15" font-family="Roboto" font-size="8.00"> user (profile)</text>
</g>
<!-- lettings_models_Address -->
<g id="node2" class="node">
<title>lettings_models_Address</title>
<polygon fill="white" stroke="none" points="234,-4 234,-118 447,-118 447,-4 234,-4"/>
<polygon fill="#1b563f" stroke="none" points="235,-96 235,-117 446,-117 446,-96 235,-96"/>
<text text-anchor="start" x="296.62" y="-103.5" font-family="Roboto" font-size="8.00"> &#160;&#160;&#160;</text>
<text text-anchor="start" x="308.62" y="-103.5" font-family="Roboto" font-weight="bold" font-size="10.00" fill="white"> &#160;&#160;&#160;Address &#160;&#160;&#160;</text>
<text text-anchor="start" x="237" y="-87.4" font-family="Roboto" font-size="8.00"> &#160;&#160;&#160;</text>
<text text-anchor="start" x="249" y="-87.4" font-family="Roboto" font-weight="bold" font-size="8.00">id</text>
<text text-anchor="start" x="258" y="-87.4" font-family="Roboto" font-size="8.00"> &#160;&#160;&#160;</text>
<text text-anchor="start" x="338" y="-87.4" font-family="Roboto" font-size="8.00"> &#160;&#160;&#160;</text>
<text text-anchor="start" x="350" y="-87.4" font-family="Roboto" font-weight="bold" font-size="8.00">AutoField</text>
<text text-anchor="start" x="395.75" y="-87.4" font-family="Roboto" font-size="8.00"> &#160;&#160;&#160;</text>
<text text-anchor="start" x="237" y="-74.4" font-family="Roboto" font-size="8.00"> &#160;&#160;&#160;</text>
<text text-anchor="start" x="249" y="-74.4" font-family="Roboto" font-size="8.00">city</text>
<text text-anchor="start" x="263.25" y="-74.4" font-family="Roboto" font-size="8.00"> &#160;&#160;&#160;</text>
<text text-anchor="start" x="338" y="-74.4" font-family="Roboto" font-size="8.00"> &#160;&#160;&#160;</text>
<text text-anchor="start" x="350" y="-74.4" font-family="Roboto" font-size="8.00">CharField</text>
<text text-anchor="start" x="389.75" y="-74.4" font-family="Roboto" font-size="8.00"> &#160;&#160;&#160;</text>
<text text-anchor="start" x="236.75" y="-61.4" font-family="Roboto" font-size="8.00"> &#160;&#160;&#160;</text>
<text text-anchor="start" x="248.75" y="-61.4" font-family="Roboto" font-size="8.00">country_iso_code</text>
<text text-anchor="start" x="322.25" y="-61.4" font-family="Roboto" font-size="8.00"> &#160;&#160;&#160;</text>
<text text-anchor="start" x="338" y="-61.4" font-family="Roboto" font-size="8.00"> &#160;&#160;&#160;</text>
<text text-anchor="start" x="350" y="-61.4" font-family="Roboto" font-size="8.00">CharField</text>
<text text-anchor="start" x="389.75" y="-61.4" font-family="Roboto" font-size="8.00"> &#160;&#160;&#160;</text>
<text text-anchor="start" x="237" y="-48.4" font-family="Roboto" font-size="8.00"> &#160;&#160;&#160;</text>
<text text-anchor="start" x="249" y="-48.4" font-family="Roboto" font-size="8.00">number</text>
<text text-anchor="start" x="282" y="-48.4" font-family="Roboto" font-size="8.00"> &#160;&#160;&#160;</text>
<text text-anchor="start" x="337.75" y="-48.4" font-family="Roboto" font-size="8.00"> &#160;&#160;&#160;</text>
<text text-anchor="start" x="349.75" y="-48.4" font-family="Roboto" font-size="8.00">PositiveIntegerField</text>
<text text-anchor="start" x="432.25" y="-48.4" font-family="Roboto" font-size="8.00"> &#160;&#160;&#160;</text>
<text text-anchor="start" x="237" y="-35.4" font-family="Roboto" font-size="8.00"> &#160;&#160;&#160;</text>
<text text-anchor="start" x="249" y="-35.4" font-family="Roboto" font-size="8.00">state</text>
<text text-anchor="start" x="270.75" y="-35.4" font-family="Roboto" font-size="8.00"> &#160;&#160;&#160;</text>
<text text-anchor="start" x="338" y="-35.4" font-family="Roboto" font-size="8.00"> &#160;&#160;&#160;</text>
<text text-anchor="start" x="350" y="-35.4" font-family="Roboto" font-size="8.00">CharField</text>
<text text-anchor="start" x="389.75" y="-35.4" font-family="Roboto" font-size="8.00"> &#160;&#160;&#160;</text>
<text text-anchor="start" x="237" y="-22.4" font-family="Roboto" font-size="8.00"> &#160;&#160;&#160;</text>
<text text-anchor="start" x="249" y="-22.4" font-family="Roboto" font-size="8.00">street</text>
<text text-anchor="start" x="274.5" y="-22.4" font-family="Roboto" font-size="8.00"> &#160;&#160;&#160;</text>
<text text-anchor="start" x="338" y="-22.4" font-family="Roboto" font-size="8.00"> &#160;&#160;&#160;</text>
<text text-anchor="start" x="350" y="-22.4" font-family="Roboto" font-size="8.00">CharField</text>
<text text-anchor="start" x="389.75" y="-22.4" font-family="Roboto" font-size="8.00"> &#160;&#160;&#160;</text>
<text text-anchor="start" x="237" y="-9.4" font-family="Roboto" font-size="8.00"> &#160;&#160;&#160;</text>
<text text-anchor="start" x="249" y="-9.4" font-family="Roboto" font-size="8.00">zip_code</text>
<text text-anchor="start" x="285" y="-9.4" font-family="Roboto" font-size="8.00"> &#160;&#160;&#160;</text>
<text text-anchor="start" x="337.75" y="-9.4" font-family="Roboto" font-size="8.00"> &#160;&#160;&#160;</text>
<text text-anchor="start" x="349.75" y="-9.4" font-family="Roboto" font-size="8.00">PositiveIntegerField</text>
<text text-anchor="start" x="432.25" y="-9.4" font-family="Roboto" font-size="8.00"> &#160;&#160;&#160;</text>
<polygon fill="none" stroke="black" points="234,-4 234,-118 447,-118 447,-4 234,-4"/>
</g>
<!-- lettings_models_Letting -->
<g id="node3" class="node">
<title>lettings_models_Letting</title>
<polygon fill="white" stroke="none" points="245.5,-171.75 245.5,-233.75 435.5,-233.75 435.5,-171.75 245.5,-171.75"/>
<polygon fill="#1b563f" stroke="none" points="246.5,-211.75 246.5,-232.75 434.5,-232.75 434.5,-211.75 246.5,-211.75"/>
<text text-anchor="start" x="300" y="-219.25" font-family="Roboto" font-size="8.00"> &#160;&#160;&#160;</text>
<text text-anchor="start" x="312" y="-219.25" font-family="Roboto" font-weight="bold" font-size="10.00" fill="white"> &#160;&#160;&#160;Letting &#160;&#160;&#160;</text>
<text text-anchor="start" x="248.5" y="-203.15" font-family="Roboto" font-size="8.00"> &#160;&#160;&#160;</text>
<text text-anchor="start" x="260.5" y="-203.15" font-family="Roboto" font-weight="bold" font-size="8.00">id</text>
<text text-anchor="start" x="269.5" y="-203.15" font-family="Roboto" font-size="8.00"> &#160;&#160;&#160;</text>
<text text-anchor="start" x="314.5" y="-203.15" font-family="Roboto" font-size="8.00"> &#160;&#160;&#160;</text>
<text text-anchor="start" x="326.5" y="-203.15" font-family="Roboto" font-weight="bold" font-size="8.00">AutoField</text>
<text text-anchor="start" x="372.25" y="-203.15" font-family="Roboto" font-size="8.00"> &#160;&#160;&#160;</text>
<text text-anchor="start" x="248.38" y="-190.15" font-family="Roboto" font-size="8.00"> &#160;&#160;&#160;</text>
<text text-anchor="start" x="260.38" y="-190.15" font-family="Roboto" font-weight="bold" font-size="8.00">address</text>
<text text-anchor="start" x="298.62" y="-190.15" font-family="Roboto" font-size="8.00"> &#160;&#160;&#160;</text>
<text text-anchor="start" x="314.25" y="-190.15" font-family="Roboto" font-size="8.00"> &#160;&#160;&#160;</text>
<text text-anchor="start" x="326.25" y="-190.15" font-family="Roboto" font-weight="bold" font-size="8.00">OneToOneField (id)</text>
<text text-anchor="start" x="420.75" y="-190.15" font-family="Roboto" font-size="8.00"> &#160;&#160;&#160;</text>
<text text-anchor="start" x="248.5" y="-177.15" font-family="Roboto" font-size="8.00"> &#160;&#160;&#160;</text>
<text text-anchor="start" x="260.5" y="-177.15" font-family="Roboto" font-size="8.00">title</text>
<text text-anchor="start" x="276.25" y="-177.15" font-family="Roboto" font-size="8.00"> &#160;&#160;&#160;</text>
<text text-anchor="start" x="314.5" y="-177.15" font-family="Roboto" font-size="8.00"> &#160;&#160;&#160;</text>
<text text-anchor="start" x="326.5" y="-177.15" font-family="Roboto" font-size="8.00">CharField</text>
<text text-anchor="start" x="366.25" y="-177.15" font-family="Roboto" font-size="8.00"> &#160;&#160;&#160;</text>
<polygon fill="none" stroke="black" points="245.5,-171.75 245.5,-233.75 435.5,-233.75 435.5,-171.75 245.5,-171.75"/>
</g>
<!-- lettings_models_Letting&#45;&gt;lettings_models_Address -->
<g id="edge2" class="edge">
<title>lettings_models_Letting&#45;&gt;lettings_models_Address</title>
<path fill="none" stroke="black" d="M340.5,-167.92C340.5,-154.11 340.5,-137.71 340.5,-121.99"/>
<text text-anchor="middle" x="377.25" y="-142.15" font-family="Roboto" font-size="8.00"> address (letting)</text>
</g>
</g>
</svg>
