<?xml version="1.0" encoding="UTF-8" standalone="no"?>
<!DOCTYPE svg PUBLIC "-//W3C//DTD SVG 1.1//EN"
 "http://www.w3.org/Graphics/SVG/1.1/DTD/svg11.dtd">
<!-- Generated by graphviz version 9.0.0 (20230911.1827)
 -->
<!-- Title: model_graph Pages: 1 -->
<svg width="560pt" height="305pt"
 viewBox="0.00 0.00 560.00 305.00" xmlns="http://www.w3.org/2000/svg" xmlns:xlink="http://www.w3.org/1999/xlink">
<g id="graph0" class="graph" transform="scale(1 1) rotate(0) translate(4 301)">
<title>model_graph</title>
<polygon fill="white" stroke="none" points="-4,4 -4,-301 556,-301 556,4 -4,4"/>
<g id="clust1" class="cluster">
<title>cluster_profiles</title>
<path fill="none" stroke="#698b22" d="M20,-175.75C20,-175.75 256,-175.75 256,-175.75 262,-175.75 268,-181.75 268,-187.75 268,-187.75 268,-277 268,-277 268,-283 262,-289 256,-289 256,-289 20,-289 20,-289 14,-289 8,-283 8,-277 8,-277 8,-187.75 8,-187.75 8,-181.75 14,-175.75 20,-175.75"/>
<text text-anchor="start" x="57" y="-272.5" font-family="Roboto" font-size="8.00"> &#160;&#160;&#160;&#160;&#160;&#160;&#160;&#160;&#160;</text>
<text text-anchor="start" x="87" y="-272.5" font-family="Roboto" font-size="10.00"> &#160;&#160;&#160;&#160;&#160;&#160;&#160;&#160;&#160;</text>
<text text-anchor="start" x="117" y="-272.5" font-family="Roboto" font-weight="bold" font-size="10.00">profiles</text>
<text text-anchor="start" x="159" y="-272.5" font-family="Roboto" font-size="10.00"> &#160;&#160;&#160;&#160;&#160;&#160;&#160;&#160;&#160;</text>
<text text-anchor="start" x="189" y="-272.5" font-family="Roboto" font-size="8.00"> &#160;&#160;&#160;&#160;&#160;&#160;&#160;&#160;&#160;</text>
</g>
<g id="clust2" class="cluster">
<title>cluster_lettings</title>
<path fill="none" stroke="#698b22" d="M288,-8C288,-8 532,-8 532,-8 538,-8 544,-14 544,-20 544,-20 544,-277 544,-277 544,-283 538,-289 532,-289 532,-289 288,-289 288,-289 282,-289 276,-283 276,-277 276,-277 276,-20 276,-20 276,-14 282,-8 288,-8"/>
<text text-anchor="start" x="329" y="-272.5" font-family="Roboto" font-size="8.00"> &#160;&#160;&#160;&#160;&#160;&#160;&#160;&#160;&#160;</text>
<text text-anchor="start" x="359" y="-272.5" font-family="Roboto" font-size="10.00"> &#160;&#160;&#160;&#160;&#160;&#160;&#160;&#160;&#160;</text>
<text text-anchor="start" x="389" y="-272.5" font-family="Roboto" font-weight="bold" font-size="10.00">lettings</text>
<text text-anchor="start" x="431" y="-272.5" font-family="Roboto" font-size="10.00"> &#160;&#160;&#160;&#160;&#160;&#160;&#160;&#160;&#160;</text>
<text text-anchor="start" x="461" y="-272.5" font-family="Roboto" font-size="8.00"> &#160;&#160;&#160;&#160;&#160;&#160;&#160;&#160;&#160;</text>
</g>
<!-- profiles_models_Profile -->
<g id="node1" class="node">
<title>profiles_models_Profile</title>
<polygon fill="white" stroke="none" points="24.5,-187.75 24.5,-249.75 251.5,-249.75 251.5,-187.75 24.5,-187.75"/>
<polygon fill="#1b563f" stroke="none" points="25.5,-227.75 25.5,-248.75 250.5,-248.75 250.5,-227.75 25.5,-227.75"/>
<text text-anchor="start" x="88.5" y="-235.25" font-family="Roboto" font-size="8.00"> &#160;&#160;&#160;&#160;&#160;</text>
<text text-anchor="start" x="106.5" y="-235.25" font-family="Roboto" font-weight="bold" font-size="10.00" fill="white"> &#160;&#160;&#160;&#160;&#160;Profile &#160;&#160;&#160;&#160;&#160;</text>
<text text-anchor="start" x="27.5" y="-219.15" font-family="Roboto" font-size="8.00"> &#160;&#160;&#160;&#160;&#160;</text>
<text text-anchor="start" x="45.5" y="-219.15" font-family="Roboto" font-weight="bold" font-size="8.00">ID</text>
<text text-anchor="start" x="55.25" y="-219.15" font-family="Roboto" font-size="8.00"> &#160;&#160;&#160;&#160;&#160;</text>
<text text-anchor="start" x="118.5" y="-219.15" font-family="Roboto" font-size="8.00"> &#160;&#160;&#160;&#160;&#160;</text>
<text text-anchor="start" x="136.5" y="-219.15" font-family="Roboto" font-weight="bold" font-size="8.00">AutoField</text>
<text text-anchor="start" x="182.25" y="-219.15" font-family="Roboto" font-size="8.00"> &#160;&#160;&#160;&#160;&#160;</text>
<text text-anchor="start" x="27.5" y="-206.15" font-family="Roboto" font-size="8.00"> &#160;&#160;&#160;&#160;&#160;</text>
<text text-anchor="start" x="45.5" y="-206.15" font-family="Roboto" font-weight="bold" font-size="8.00">User</text>
<text text-anchor="start" x="67.25" y="-206.15" font-family="Roboto" font-size="8.00"> &#160;&#160;&#160;&#160;&#160;</text>
<text text-anchor="start" x="118.25" y="-206.15" font-family="Roboto" font-size="8.00"> &#160;&#160;&#160;&#160;&#160;</text>
<text text-anchor="start" x="136.25" y="-206.15" font-family="Roboto" font-weight="bold" font-size="8.00">OneToOneField (id)</text>
<text text-anchor="start" x="230.75" y="-206.15" font-family="Roboto" font-size="8.00"> &#160;&#160;&#160;&#160;&#160;</text>
<text text-anchor="start" x="27.5" y="-193.15" font-family="Roboto" font-size="8.00"> &#160;&#160;&#160;&#160;&#160;</text>
<text text-anchor="start" x="45.5" y="-193.15" font-family="Roboto" font-size="8.00" fill="#7b7b7b">Favorite city</text>
<text text-anchor="start" x="96.5" y="-193.15" font-family="Roboto" font-size="8.00"> &#160;&#160;&#160;&#160;&#160;</text>
<text text-anchor="start" x="118.5" y="-193.15" font-family="Roboto" font-size="8.00"> &#160;&#160;&#160;&#160;&#160;</text>
<text text-anchor="start" x="136.5" y="-193.15" font-family="Roboto" font-size="8.00" fill="#7b7b7b">CharField</text>
<text text-anchor="start" x="176.25" y="-193.15" font-family="Roboto" font-size="8.00"> &#160;&#160;&#160;&#160;&#160;</text>
<polygon fill="none" stroke="black" points="24.5,-187.75 24.5,-249.75 251.5,-249.75 251.5,-187.75 24.5,-187.75"/>
</g>
<!-- django_contrib_auth_models_User -->
<g id="node4" class="node">
<title>django_contrib_auth_models_User</title>
<polygon fill="white" stroke="none" points="113.62,-65.88 113.62,-88.12 162.38,-88.12 162.38,-65.88 113.62,-65.88"/>
<polygon fill="#1b563f" stroke="none" points="113.62,-65.88 113.62,-88.12 162.38,-88.12 162.38,-65.88 113.62,-65.88"/>
<text text-anchor="start" x="118.12" y="-73.72" font-family="Roboto" font-size="8.00"> &#160;</text>
<text text-anchor="start" x="124.12" y="-73.72" font-family="Roboto" font-size="12.00" fill="white">User</text>
<text text-anchor="start" x="151.88" y="-73.72" font-family="Roboto" font-size="8.00"> &#160;</text>
</g>
<!-- profiles_models_Profile&#45;&gt;django_contrib_auth_models_User -->
<g id="edge1" class="edge">
<title>profiles_models_Profile&#45;&gt;django_contrib_auth_models_User</title>
<path fill="none" stroke="black" d="M138,-183.92C138,-155.81 138,-116.98 138,-94.99"/>
<text text-anchor="middle" x="167.62" y="-158.15" font-family="Roboto" font-size="8.00"> User (Profile)</text>
</g>
<!-- lettings_models_Address -->
<g id="node2" class="node">
<title>lettings_models_Address</title>
<polygon fill="white" stroke="none" points="292,-20 292,-134 528,-134 528,-20 292,-20"/>
<polygon fill="#1b563f" stroke="none" points="293,-112 293,-133 527,-133 527,-112 293,-112"/>
<text text-anchor="start" x="355.62" y="-119.5" font-family="Roboto" font-size="8.00"> &#160;&#160;&#160;&#160;&#160;</text>
<text text-anchor="start" x="373.62" y="-119.5" font-family="Roboto" font-weight="bold" font-size="10.00" fill="white"> &#160;&#160;&#160;&#160;&#160;Address &#160;&#160;&#160;&#160;&#160;</text>
<text text-anchor="start" x="295" y="-103.4" font-family="Roboto" font-size="8.00"> &#160;&#160;&#160;&#160;&#160;</text>
<text text-anchor="start" x="313" y="-103.4" font-family="Roboto" font-weight="bold" font-size="8.00">ID</text>
<text text-anchor="start" x="322.75" y="-103.4" font-family="Roboto" font-size="8.00"> &#160;&#160;&#160;&#160;&#160;</text>
<text text-anchor="start" x="407" y="-103.4" font-family="Roboto" font-size="8.00"> &#160;&#160;&#160;&#160;&#160;</text>
<text text-anchor="start" x="425" y="-103.4" font-family="Roboto" font-weight="bold" font-size="8.00">AutoField</text>
<text text-anchor="start" x="470.75" y="-103.4" font-family="Roboto" font-size="8.00"> &#160;&#160;&#160;&#160;&#160;</text>
<text text-anchor="start" x="295" y="-90.4" font-family="Roboto" font-size="8.00"> &#160;&#160;&#160;&#160;&#160;</text>
<text text-anchor="start" x="313" y="-90.4" font-family="Roboto" font-size="8.00">City</text>
<text text-anchor="start" x="328.75" y="-90.4" font-family="Roboto" font-size="8.00"> &#160;&#160;&#160;&#160;&#160;</text>
<text text-anchor="start" x="407" y="-90.4" font-family="Roboto" font-size="8.00"> &#160;&#160;&#160;&#160;&#160;</text>
<text text-anchor="start" x="425" y="-90.4" font-family="Roboto" font-size="8.00">CharField</text>
<text text-anchor="start" x="464.75" y="-90.4" font-family="Roboto" font-size="8.00"> &#160;&#160;&#160;&#160;&#160;</text>
<text text-anchor="start" x="295" y="-77.4" font-family="Roboto" font-size="8.00"> &#160;&#160;&#160;&#160;&#160;</text>
<text text-anchor="start" x="313" y="-77.4" font-family="Roboto" font-size="8.00">Country iso code</text>
<text text-anchor="start" x="385" y="-77.4" font-family="Roboto" font-size="8.00"> &#160;&#160;&#160;&#160;&#160;</text>
<text text-anchor="start" x="407" y="-77.4" font-family="Roboto" font-size="8.00"> &#160;&#160;&#160;&#160;&#160;</text>
<text text-anchor="start" x="425" y="-77.4" font-family="Roboto" font-size="8.00">CharField</text>
<text text-anchor="start" x="464.75" y="-77.4" font-family="Roboto" font-size="8.00"> &#160;&#160;&#160;&#160;&#160;</text>
<text text-anchor="start" x="295" y="-64.4" font-family="Roboto" font-size="8.00"> &#160;&#160;&#160;&#160;&#160;</text>
<text text-anchor="start" x="313" y="-64.4" font-family="Roboto" font-size="8.00">Number</text>
<text text-anchor="start" x="346.75" y="-64.4" font-family="Roboto" font-size="8.00"> &#160;&#160;&#160;&#160;&#160;</text>
<text text-anchor="start" x="406.75" y="-64.4" font-family="Roboto" font-size="8.00"> &#160;&#160;&#160;&#160;&#160;</text>
<text text-anchor="start" x="424.75" y="-64.4" font-family="Roboto" font-size="8.00">PositiveIntegerField</text>
<text text-anchor="start" x="507.25" y="-64.4" font-family="Roboto" font-size="8.00"> &#160;&#160;&#160;&#160;&#160;</text>
<text text-anchor="start" x="295" y="-51.4" font-family="Roboto" font-size="8.00"> &#160;&#160;&#160;&#160;&#160;</text>
<text text-anchor="start" x="313" y="-51.4" font-family="Roboto" font-size="8.00">State</text>
<text text-anchor="start" x="335.5" y="-51.4" font-family="Roboto" font-size="8.00"> &#160;&#160;&#160;&#160;&#160;</text>
<text text-anchor="start" x="407" y="-51.4" font-family="Roboto" font-size="8.00"> &#160;&#160;&#160;&#160;&#160;</text>
<text text-anchor="start" x="425" y="-51.4" font-family="Roboto" font-size="8.00">CharField</text>
<text text-anchor="start" x="464.75" y="-51.4" font-family="Roboto" font-size="8.00"> &#160;&#160;&#160;&#160;&#160;</text>
<text text-anchor="start" x="295" y="-38.4" font-family="Roboto" font-size="8.00"> &#160;&#160;&#160;&#160;&#160;</text>
<text text-anchor="start" x="313" y="-38.4" font-family="Roboto" font-size="8.00">Street</text>
<text text-anchor="start" x="339.25" y="-38.4" font-family="Roboto" font-size="8.00"> &#160;&#160;&#160;&#160;&#160;</text>
<text text-anchor="start" x="407" y="-38.4" font-family="Roboto" font-size="8.00"> &#160;&#160;&#160;&#160;&#160;</text>
<text text-anchor="start" x="425" y="-38.4" font-family="Roboto" font-size="8.00">CharField</text>
<text text-anchor="start" x="464.75" y="-38.4" font-family="Roboto" font-size="8.00"> &#160;&#160;&#160;&#160;&#160;</text>
<text text-anchor="start" x="295" y="-25.4" font-family="Roboto" font-size="8.00"> &#160;&#160;&#160;&#160;&#160;</text>
<text text-anchor="start" x="313" y="-25.4" font-family="Roboto" font-size="8.00">Zip code</text>
<text text-anchor="start" x="350.5" y="-25.4" font-family="Roboto" font-size="8.00"> &#160;&#160;&#160;&#160;&#160;</text>
<text text-anchor="start" x="406.75" y="-25.4" font-family="Roboto" font-size="8.00"> &#160;&#160;&#160;&#160;&#160;</text>
<text text-anchor="start" x="424.75" y="-25.4" font-family="Roboto" font-size="8.00">PositiveIntegerField</text>
<text text-anchor="start" x="507.25" y="-25.4" font-family="Roboto" font-size="8.00"> &#160;&#160;&#160;&#160;&#160;</text>
<polygon fill="none" stroke="black" points="292,-20 292,-134 528,-134 528,-20 292,-20"/>
</g>
<!-- lettings_models_Letting -->
<g id="node3" class="node">
<title>lettings_models_Letting</title>
<polygon fill="white" stroke="none" points="303,-187.75 303,-249.75 517,-249.75 517,-187.75 303,-187.75"/>
<polygon fill="#1b563f" stroke="none" points="304,-227.75 304,-248.75 516,-248.75 516,-227.75 304,-227.75"/>
<text text-anchor="start" x="359" y="-235.25" font-family="Roboto" font-size="8.00"> &#160;&#160;&#160;&#160;&#160;</text>
<text text-anchor="start" x="377" y="-235.25" font-family="Roboto" font-weight="bold" font-size="10.00" fill="white"> &#160;&#160;&#160;&#160;&#160;Letting &#160;&#160;&#160;&#160;&#160;</text>
<text text-anchor="start" x="306" y="-219.15" font-family="Roboto" font-size="8.00"> &#160;&#160;&#160;&#160;&#160;</text>
<text text-anchor="start" x="324" y="-219.15" font-family="Roboto" font-weight="bold" font-size="8.00">ID</text>
<text text-anchor="start" x="333.75" y="-219.15" font-family="Roboto" font-size="8.00"> &#160;&#160;&#160;&#160;&#160;</text>
<text text-anchor="start" x="384" y="-219.15" font-family="Roboto" font-size="8.00"> &#160;&#160;&#160;&#160;&#160;</text>
<text text-anchor="start" x="402" y="-219.15" font-family="Roboto" font-weight="bold" font-size="8.00">AutoField</text>
<text text-anchor="start" x="447.75" y="-219.15" font-family="Roboto" font-size="8.00"> &#160;&#160;&#160;&#160;&#160;</text>
<text text-anchor="start" x="305.88" y="-206.15" font-family="Roboto" font-size="8.00"> &#160;&#160;&#160;&#160;&#160;</text>
<text text-anchor="start" x="323.88" y="-206.15" font-family="Roboto" font-weight="bold" font-size="8.00">Address</text>
<text text-anchor="start" x="362.12" y="-206.15" font-family="Roboto" font-size="8.00"> &#160;&#160;&#160;&#160;&#160;</text>
<text text-anchor="start" x="383.75" y="-206.15" font-family="Roboto" font-size="8.00"> &#160;&#160;&#160;&#160;&#160;</text>
<text text-anchor="start" x="401.75" y="-206.15" font-family="Roboto" font-weight="bold" font-size="8.00">OneToOneField (id)</text>
<text text-anchor="start" x="496.25" y="-206.15" font-family="Roboto" font-size="8.00"> &#160;&#160;&#160;&#160;&#160;</text>
<text text-anchor="start" x="306" y="-193.15" font-family="Roboto" font-size="8.00"> &#160;&#160;&#160;&#160;&#160;</text>
<text text-anchor="start" x="324" y="-193.15" font-family="Roboto" font-size="8.00">Title</text>
<text text-anchor="start" x="342" y="-193.15" font-family="Roboto" font-size="8.00"> &#160;&#160;&#160;&#160;&#160;</text>
<text text-anchor="start" x="384" y="-193.15" font-family="Roboto" font-size="8.00"> &#160;&#160;&#160;&#160;&#160;</text>
<text text-anchor="start" x="402" y="-193.15" font-family="Roboto" font-size="8.00">CharField</text>
<text text-anchor="start" x="441.75" y="-193.15" font-family="Roboto" font-size="8.00"> &#160;&#160;&#160;&#160;&#160;</text>
<polygon fill="none" stroke="black" points="303,-187.75 303,-249.75 517,-249.75 517,-187.75 303,-187.75"/>
</g>
<!-- lettings_models_Letting&#45;&gt;lettings_models_Address -->
<g id="edge2" class="edge">
<title>lettings_models_Letting&#45;&gt;lettings_models_Address</title>
<path fill="none" stroke="black" d="M410,-183.92C410,-170.11 410,-153.71 410,-137.99"/>
<text text-anchor="middle" x="447.88" y="-158.15" font-family="Roboto" font-size="8.00"> Address (Letting)</text>
</g>
</g>
</svg>
